<svg width="50" height="50" viewBox="0 0 50 50" fill="none" xmlns="http://www.w3.org/2000/svg">
<rect width="50" height="50" rx="10" fill="#A4FF79"/>
<path d="M14.3516 16C14.3516 15.6267 14.4582 15.3333 14.6716 15.12C14.9116 14.88 15.2316 14.6667 15.6316 14.48C15.7649 14.4 16.2449 14.16 17.0716 13.76C17.9249 13.36 18.7382 13.0533 19.5116 12.84C19.7516 12.3067 20.1116 11.8667 20.5916 11.52C21.0982 11.1733 21.7382 11 22.5116 11C22.9649 11 23.3382 11.0933 23.6316 11.28C23.9249 11.44 24.1249 11.6533 24.2316 11.92C25.2182 11.6 26.4049 11.44 27.7916 11.44C29.5249 11.44 31.0182 11.8133 32.2716 12.56C33.5516 13.28 34.5116 14.28 35.1516 15.56C35.8182 16.84 36.1516 18.28 36.1516 19.88C36.1516 20.2 36.1116 20.64 36.0316 21.2C34.9382 27.44 30.2716 30.56 22.0316 30.56C21.2849 30.56 20.7382 30.5467 20.3916 30.52L19.8716 32.44C19.3116 34.4933 19.0316 35.5467 19.0316 35.6C18.8182 36.5333 18.4849 37.2533 18.0316 37.76C17.6049 38.2667 16.8982 38.52 15.9116 38.52C15.0849 38.52 14.4716 38.3733 14.0716 38.08C13.6982 37.8133 13.5116 37.3467 13.5116 36.68C13.5116 36.3867 13.5516 36.1067 13.6316 35.84L18.4716 17.16C17.0849 17.56 16.0316 18.1067 15.3116 18.8C15.0182 18.48 14.7782 18.0667 14.5916 17.56C14.4316 17.0267 14.3516 16.5067 14.3516 16ZM21.2316 26.8C21.5516 26.8267 22.0049 26.84 22.5916 26.84C25.1249 26.84 27.1249 26.36 28.5916 25.4C30.0849 24.44 31.0449 22.96 31.4716 20.96C31.5516 20.5067 31.5916 20.1733 31.5916 19.96C31.5916 18.4667 31.1782 17.36 30.3516 16.64C29.5249 15.8933 28.3649 15.52 26.8716 15.52C26.0716 15.52 25.0449 15.7067 23.7916 16.08C22.7516 20.2133 21.8982 23.7867 21.2316 26.8Z" fill="#306128"/>
</svg>
